<svg xmlns="http://www.w3.org/2000/svg" width="128" height="128" fill="none" viewBox="0 0 128 128" id="css">
  <path stroke="#000" stroke-width="5" d="M76 27V41C76 42.6569 77.3431 44 79 44H93"></path>
  <path stroke="#000" stroke-linecap="round" stroke-width="5" d="M35 54.5L35 35C35 30.0294 39.0294 26 44 26H74.0785C75.9108 26 77.6701 26.7184 78.9786 28.0011L88.0509 36.8939L91.1244 40.1967C92.3299 41.4921 93 43.1959 93 44.9654V93C93 97.9706 88.9706 102 84 102H44C39.0294 102 35 97.9706 35 93L35 90"></path>
  <path fill="#000" d="M42.78 75.8198C42.9267 75.7132 43.06 75.6532 43.18 75.6398 43.3 75.6265 43.4067 75.6865 43.5 75.8198L45.14 78.2198C45.2467 78.3665 45.2867 78.4865 45.26 78.5798 45.2334 78.6598 45.1467 78.7532 45 78.8598 44.4667 79.2465 43.84 79.5732 43.12 79.8398 42.4134 80.0932 41.6067 80.2198 40.7 80.2198 39.6467 80.2198 38.6534 80.0198 37.72 79.6198 36.7867 79.2198 35.9667 78.6732 35.26 77.9798 34.5667 77.2732 34.02 76.4532 33.62 75.5198 33.22 74.5865 33.02 73.5932 33.02 72.5398 33.02 71.4732 33.22 70.4798 33.62 69.5598 34.02 68.6398 34.5667 67.8332 35.26 67.1398 35.9667 66.4465 36.7867 65.9065 37.72 65.5198 38.6534 65.1198 39.6467 64.9198 40.7 64.9198 41.6067 64.9198 42.4134 65.0598 43.12 65.3398 43.84 65.6065 44.48 65.9332 45.04 66.3198 45.1467 66.3865 45.2067 66.4732 45.22 66.5798 45.2334 66.6865 45.22 66.7732 45.18 66.8398L43.44 69.3398C43.36 69.4465 43.26 69.4998 43.14 69.4998 43.0334 69.4865 42.9267 69.4332 42.82 69.3398 42.4867 69.0732 42.1534 68.8865 41.82 68.7798 41.4867 68.6598 41.1134 68.5998 40.7 68.5998 40.14 68.5998 39.62 68.6998 39.14 68.8998 38.6734 69.0998 38.2667 69.3798 37.92 69.7398 37.5734 70.0865 37.3 70.4998 37.1 70.9798 36.9134 71.4598 36.82 71.9798 36.82 72.5398 36.82 73.0998 36.9134 73.6265 37.1 74.1198 37.3 74.5998 37.5734 75.0198 37.92 75.3798 38.2667 75.7398 38.6734 76.0265 39.14 76.2398 39.62 76.4398 40.14 76.5398 40.7 76.5398 41.1267 76.5398 41.5134 76.4665 41.86 76.3198 42.2067 76.1732 42.5134 76.0065 42.78 75.8198zM49.5421 75.2198C49.6621 75.3132 49.8087 75.4398 49.982 75.5998 50.1554 75.7465 50.3554 75.8998 50.5821 76.0598 50.9154 76.2865 51.2487 76.4665 51.5821 76.5998 51.9287 76.7198 52.2821 76.7798 52.6421 76.7798 53.3354 76.7798 53.8021 76.6398 54.0421 76.3598 54.2954 76.0798 54.4221 75.7532 54.4221 75.3798 54.4221 75.1665 54.3421 74.9798 54.1821 74.8198 54.0221 74.6598 53.8287 74.5198 53.6021 74.3998 53.3887 74.2665 53.1554 74.1598 52.9021 74.0798 52.6621 73.9865 52.4487 73.9065 52.2621 73.8398 50.6487 73.2798 49.4421 72.6198 48.6421 71.8598 47.8554 71.0998 47.4621 70.1332 47.4621 68.9598 47.4621 68.3332 47.5887 67.7665 47.8421 67.2598 48.0954 66.7532 48.4487 66.3198 48.9021 65.9598 49.3687 65.5998 49.9287 65.3265 50.5821 65.1398 51.2354 64.9398 51.9621 64.8398 52.7621 64.8398 53.3621 64.8398 53.9421 64.9065 54.5021 65.0398 55.0754 65.1732 55.6287 65.3932 56.1621 65.6998 56.6154 65.9665 57.0087 66.2398 57.3421 66.5198 57.6754 66.7998 57.8421 67.0332 57.8421 67.2198 57.8421 67.3398 57.7554 67.4998 57.5821 67.6998L56.0421 69.3398C55.9354 69.4465 55.8221 69.4998 55.7021 69.4998 55.6087 69.4998 55.5221 69.4732 55.4421 69.4198 55.3754 69.3665 55.2954 69.2998 55.2021 69.2198L55.1021 69.1398C54.8354 68.9132 54.5087 68.6932 54.1221 68.4798 53.7487 68.2532 53.3487 68.1398 52.9221 68.1398 52.4821 68.1398 52.1021 68.2132 51.7821 68.3598 51.4621 68.5065 51.3021 68.7732 51.3021 69.1598 51.3021 69.5332 51.4887 69.8198 51.8621 70.0198 52.2354 70.2198 52.7887 70.4398 53.5221 70.6798 54.2287 70.9198 54.8821 71.1665 55.4821 71.4198 56.0821 71.6732 56.5954 71.9798 57.0221 72.3398 57.4621 72.6865 57.8021 73.1065 58.0421 73.5998 58.2821 74.0798 58.4021 74.6665 58.4021 75.3598 58.4021 76.0932 58.2487 76.7598 57.9421 77.3598 57.6487 77.9465 57.2421 78.4532 56.7221 78.8798 56.2021 79.2932 55.5887 79.6198 54.8821 79.8598 54.1754 80.0865 53.4154 80.1998 52.6021 80.1998 52.0821 80.1998 51.5687 80.1332 51.0621 79.9998 50.5554 79.8665 50.0621 79.6865 49.5821 79.4598 49.1154 79.2332 48.6754 78.9665 48.2621 78.6598 47.8487 78.3532 47.4821 78.0198 47.1621 77.6598L47.1221 77.6398C47.1087 77.6132 47.0954 77.5998 47.0821 77.5998 47.0687 77.5865 47.0554 77.5732 47.0421 77.5598 46.8954 77.3998 46.8221 77.2665 46.8221 77.1598 46.8221 77.0532 46.8954 76.9265 47.0421 76.7798L48.7821 75.1198C48.9154 75.0265 49.0287 74.9798 49.1221 74.9798 49.2287 74.9798 49.3687 75.0598 49.5421 75.2198zM62.6671 75.2198C62.7871 75.3132 62.9337 75.4398 63.107 75.5998 63.2804 75.7465 63.4804 75.8998 63.7071 76.0598 64.0404 76.2865 64.3737 76.4665 64.7071 76.5998 65.0537 76.7198 65.4071 76.7798 65.7671 76.7798 66.4604 76.7798 66.9271 76.6398 67.1671 76.3598 67.4204 76.0798 67.5471 75.7532 67.5471 75.3798 67.5471 75.1665 67.4671 74.9798 67.3071 74.8198 67.1471 74.6598 66.9537 74.5198 66.7271 74.3998 66.5137 74.2665 66.2804 74.1598 66.0271 74.0798 65.787 73.9865 65.5737 73.9065 65.3871 73.8398 63.7737 73.2798 62.5671 72.6198 61.7671 71.8598 60.9804 71.0998 60.5871 70.1332 60.5871 68.9598 60.5871 68.3332 60.7137 67.7665 60.9671 67.2598 61.2204 66.7532 61.5737 66.3198 62.0271 65.9598 62.4937 65.5998 63.0537 65.3265 63.7071 65.1398 64.3604 64.9398 65.0871 64.8398 65.8871 64.8398 66.4871 64.8398 67.0671 64.9065 67.6271 65.0398 68.2004 65.1732 68.7537 65.3932 69.2871 65.6998 69.7404 65.9665 70.1337 66.2398 70.4671 66.5198 70.8004 66.7998 70.9671 67.0332 70.9671 67.2198 70.9671 67.3398 70.8804 67.4998 70.7071 67.6998L69.167 69.3398C69.0604 69.4465 68.9471 69.4998 68.8271 69.4998 68.7337 69.4998 68.6471 69.4732 68.5671 69.4198 68.5004 69.3665 68.4204 69.2998 68.3271 69.2198L68.2271 69.1398C67.9604 68.9132 67.6337 68.6932 67.2471 68.4798 66.8737 68.2532 66.4737 68.1398 66.0471 68.1398 65.6071 68.1398 65.2271 68.2132 64.9071 68.3598 64.5871 68.5065 64.4271 68.7732 64.4271 69.1598 64.4271 69.5332 64.6137 69.8198 64.9871 70.0198 65.3604 70.2198 65.9137 70.4398 66.6471 70.6798 67.3537 70.9198 68.0071 71.1665 68.6071 71.4198 69.2071 71.6732 69.7204 71.9798 70.1471 72.3398 70.5871 72.6865 70.9271 73.1065 71.1671 73.5998 71.4071 74.0798 71.5271 74.6665 71.5271 75.3598 71.5271 76.0932 71.3737 76.7598 71.0671 77.3598 70.7737 77.9465 70.3671 78.4532 69.847 78.8798 69.3271 79.2932 68.7137 79.6198 68.007 79.8598 67.3004 80.0865 66.5404 80.1998 65.7271 80.1998 65.2071 80.1998 64.6937 80.1332 64.1871 79.9998 63.6804 79.8665 63.1871 79.6865 62.7071 79.4598 62.2404 79.2332 61.8004 78.9665 61.3871 78.6598 60.9737 78.3532 60.6071 78.0198 60.2871 77.6598L60.2471 77.6398C60.2337 77.6132 60.2204 77.5998 60.2071 77.5998 60.1937 77.5865 60.1804 77.5732 60.1671 77.5598 60.0204 77.3998 59.9471 77.2665 59.9471 77.1598 59.9471 77.0532 60.0204 76.9265 60.1671 76.7798L61.9071 75.1198C62.0404 75.0265 62.1537 74.9798 62.2471 74.9798 62.3537 74.9798 62.4937 75.0598 62.6671 75.2198z"></path>
  <path stroke="#000" stroke-width=".5" d="M42.78 75.8198C42.9267 75.7132 43.06 75.6532 43.18 75.6398 43.3 75.6265 43.4067 75.6865 43.5 75.8198L45.14 78.2198C45.2467 78.3665 45.2867 78.4865 45.26 78.5798 45.2334 78.6598 45.1467 78.7532 45 78.8598 44.4667 79.2465 43.84 79.5732 43.12 79.8398 42.4134 80.0932 41.6067 80.2198 40.7 80.2198 39.6467 80.2198 38.6534 80.0198 37.72 79.6198 36.7867 79.2198 35.9667 78.6732 35.26 77.9798 34.5667 77.2732 34.02 76.4532 33.62 75.5198 33.22 74.5865 33.02 73.5932 33.02 72.5398 33.02 71.4732 33.22 70.4798 33.62 69.5598 34.02 68.6398 34.5667 67.8332 35.26 67.1398 35.9667 66.4465 36.7867 65.9065 37.72 65.5198 38.6534 65.1198 39.6467 64.9198 40.7 64.9198 41.6067 64.9198 42.4134 65.0598 43.12 65.3398 43.84 65.6065 44.48 65.9332 45.04 66.3198 45.1467 66.3865 45.2067 66.4732 45.22 66.5798 45.2334 66.6865 45.22 66.7732 45.18 66.8398L43.44 69.3398C43.36 69.4465 43.26 69.4998 43.14 69.4998 43.0334 69.4865 42.9267 69.4332 42.82 69.3398 42.4867 69.0732 42.1534 68.8865 41.82 68.7798 41.4867 68.6598 41.1134 68.5998 40.7 68.5998 40.14 68.5998 39.62 68.6998 39.14 68.8998 38.6734 69.0998 38.2667 69.3798 37.92 69.7398 37.5734 70.0865 37.3 70.4998 37.1 70.9798 36.9134 71.4598 36.82 71.9798 36.82 72.5398 36.82 73.0998 36.9134 73.6265 37.1 74.1198 37.3 74.5998 37.5734 75.0198 37.92 75.3798 38.2667 75.7398 38.6734 76.0265 39.14 76.2398 39.62 76.4398 40.14 76.5398 40.7 76.5398 41.1267 76.5398 41.5134 76.4665 41.86 76.3198 42.2067 76.1732 42.5134 76.0065 42.78 75.8198zM49.5421 75.2198C49.6621 75.3132 49.8087 75.4398 49.982 75.5998 50.1554 75.7465 50.3554 75.8998 50.5821 76.0598 50.9154 76.2865 51.2487 76.4665 51.5821 76.5998 51.9287 76.7198 52.2821 76.7798 52.6421 76.7798 53.3354 76.7798 53.8021 76.6398 54.0421 76.3598 54.2954 76.0798 54.4221 75.7532 54.4221 75.3798 54.4221 75.1665 54.3421 74.9798 54.1821 74.8198 54.0221 74.6598 53.8287 74.5198 53.6021 74.3998 53.3887 74.2665 53.1554 74.1598 52.9021 74.0798 52.6621 73.9865 52.4487 73.9065 52.2621 73.8398 50.6487 73.2798 49.4421 72.6198 48.6421 71.8598 47.8554 71.0998 47.4621 70.1332 47.4621 68.9598 47.4621 68.3332 47.5887 67.7665 47.8421 67.2598 48.0954 66.7532 48.4487 66.3198 48.9021 65.9598 49.3687 65.5998 49.9287 65.3265 50.5821 65.1398 51.2354 64.9398 51.9621 64.8398 52.7621 64.8398 53.3621 64.8398 53.9421 64.9065 54.5021 65.0398 55.0754 65.1732 55.6287 65.3932 56.1621 65.6998 56.6154 65.9665 57.0087 66.2398 57.3421 66.5198 57.6754 66.7998 57.8421 67.0332 57.8421 67.2198 57.8421 67.3398 57.7554 67.4998 57.5821 67.6998L56.0421 69.3398C55.9354 69.4465 55.8221 69.4998 55.7021 69.4998 55.6087 69.4998 55.5221 69.4732 55.4421 69.4198 55.3754 69.3665 55.2954 69.2998 55.2021 69.2198L55.1021 69.1398C54.8354 68.9132 54.5087 68.6932 54.1221 68.4798 53.7487 68.2532 53.3487 68.1398 52.9221 68.1398 52.4821 68.1398 52.1021 68.2132 51.7821 68.3598 51.4621 68.5065 51.3021 68.7732 51.3021 69.1598 51.3021 69.5332 51.4887 69.8198 51.8621 70.0198 52.2354 70.2198 52.7887 70.4398 53.5221 70.6798 54.2287 70.9198 54.8821 71.1665 55.4821 71.4198 56.0821 71.6732 56.5954 71.9798 57.0221 72.3398 57.4621 72.6865 57.8021 73.1065 58.0421 73.5998 58.2821 74.0798 58.4021 74.6665 58.4021 75.3598 58.4021 76.0932 58.2487 76.7598 57.9421 77.3598 57.6487 77.9465 57.2421 78.4532 56.7221 78.8798 56.2021 79.2932 55.5887 79.6198 54.8821 79.8598 54.1754 80.0865 53.4154 80.1998 52.6021 80.1998 52.0821 80.1998 51.5687 80.1332 51.0621 79.9998 50.5554 79.8665 50.0621 79.6865 49.5821 79.4598 49.1154 79.2332 48.6754 78.9665 48.2621 78.6598 47.8487 78.3532 47.4821 78.0198 47.1621 77.6598L47.1221 77.6398C47.1087 77.6132 47.0954 77.5998 47.0821 77.5998 47.0687 77.5865 47.0554 77.5732 47.0421 77.5598 46.8954 77.3998 46.8221 77.2665 46.8221 77.1598 46.8221 77.0532 46.8954 76.9265 47.0421 76.7798L48.7821 75.1198C48.9154 75.0265 49.0287 74.9798 49.1221 74.9798 49.2287 74.9798 49.3687 75.0598 49.5421 75.2198zM62.6671 75.2198C62.7871 75.3132 62.9337 75.4398 63.107 75.5998 63.2804 75.7465 63.4804 75.8998 63.7071 76.0598 64.0404 76.2865 64.3737 76.4665 64.7071 76.5998 65.0537 76.7198 65.4071 76.7798 65.7671 76.7798 66.4604 76.7798 66.9271 76.6398 67.1671 76.3598 67.4204 76.0798 67.5471 75.7532 67.5471 75.3798 67.5471 75.1665 67.4671 74.9798 67.3071 74.8198 67.1471 74.6598 66.9537 74.5198 66.7271 74.3998 66.5137 74.2665 66.2804 74.1598 66.0271 74.0798 65.787 73.9865 65.5737 73.9065 65.3871 73.8398 63.7737 73.2798 62.5671 72.6198 61.7671 71.8598 60.9804 71.0998 60.5871 70.1332 60.5871 68.9598 60.5871 68.3332 60.7137 67.7665 60.9671 67.2598 61.2204 66.7532 61.5737 66.3198 62.0271 65.9598 62.4937 65.5998 63.0537 65.3265 63.7071 65.1398 64.3604 64.9398 65.0871 64.8398 65.8871 64.8398 66.4871 64.8398 67.0671 64.9065 67.6271 65.0398 68.2004 65.1732 68.7537 65.3932 69.2871 65.6998 69.7404 65.9665 70.1337 66.2398 70.4671 66.5198 70.8004 66.7998 70.9671 67.0332 70.9671 67.2198 70.9671 67.3398 70.8804 67.4998 70.7071 67.6998L69.167 69.3398C69.0604 69.4465 68.9471 69.4998 68.8271 69.4998 68.7337 69.4998 68.6471 69.4732 68.5671 69.4198 68.5004 69.3665 68.4204 69.2998 68.3271 69.2198L68.2271 69.1398C67.9604 68.9132 67.6337 68.6932 67.2471 68.4798 66.8737 68.2532 66.4737 68.1398 66.0471 68.1398 65.6071 68.1398 65.2271 68.2132 64.9071 68.3598 64.5871 68.5065 64.4271 68.7732 64.4271 69.1598 64.4271 69.5332 64.6137 69.8198 64.9871 70.0198 65.3604 70.2198 65.9137 70.4398 66.6471 70.6798 67.3537 70.9198 68.0071 71.1665 68.6071 71.4198 69.2071 71.6732 69.7204 71.9798 70.1471 72.3398 70.5871 72.6865 70.9271 73.1065 71.1671 73.5998 71.4071 74.0798 71.5271 74.6665 71.5271 75.3598 71.5271 76.0932 71.3737 76.7598 71.0671 77.3598 70.7737 77.9465 70.3671 78.4532 69.847 78.8798 69.3271 79.2932 68.7137 79.6198 68.007 79.8598 67.3004 80.0865 66.5404 80.1998 65.7271 80.1998 65.2071 80.1998 64.6937 80.1332 64.1871 79.9998 63.6804 79.8665 63.1871 79.6865 62.7071 79.4598 62.2404 79.2332 61.8004 78.9665 61.3871 78.6598 60.9737 78.3532 60.6071 78.0198 60.2871 77.6598L60.2471 77.6398C60.2337 77.6132 60.2204 77.5998 60.2071 77.5998 60.1937 77.5865 60.1804 77.5732 60.1671 77.5598 60.0204 77.3998 59.9471 77.2665 59.9471 77.1598 59.9471 77.0532 60.0204 76.9265 60.1671 76.7798L61.9071 75.1198C62.0404 75.0265 62.1537 74.9798 62.2471 74.9798 62.3537 74.9798 62.4937 75.0598 62.6671 75.2198z"></path>
</svg>
